<svg xmlns="http://www.w3.org/2000/svg" xmlns:xlink="http://www.w3.org/1999/xlink" width="500" zoomAndPan="magnify" viewBox="0 0 375 374.999991" height="500" preserveAspectRatio="xMidYMid meet" version="1.0"><defs><g/><clipPath id="id1"><path d="M 60 77 L 309 77 L 309 271 L 60 271 Z M 60 77 " clip-rule="nonzero"/></clipPath><clipPath id="id2"><path d="M 143.5 41.296875 L 347.375 149.90625 L 238.765625 353.78125 L 34.890625 245.171875 Z M 143.5 41.296875 " clip-rule="nonzero"/></clipPath><clipPath id="id3"><path d="M 143.5 41.296875 L 347.375 149.90625 L 238.765625 353.78125 L 34.890625 245.171875 Z M 143.5 41.296875 " clip-rule="nonzero"/></clipPath><clipPath id="id4"><path d="M 53 73 L 302 73 L 302 268 L 53 268 Z M 53 73 " clip-rule="nonzero"/></clipPath><clipPath id="id5"><path d="M 136.375 37.5 L 340.25 146.109375 L 231.640625 349.984375 L 27.765625 241.378906 Z M 136.375 37.5 " clip-rule="nonzero"/></clipPath><clipPath id="id6"><path d="M 136.375 37.5 L 340.25 146.109375 L 231.640625 349.984375 L 27.765625 241.378906 Z M 136.375 37.5 " clip-rule="nonzero"/></clipPath></defs><g clip-path="url(#id1)"><g clip-path="url(#id2)"><g clip-path="url(#id3)"><path fill="#5271ff" d="M 155.378906 98.554688 C 133.0625 123.902344 127.253906 174.835938 109.71875 177.613281 C 67.441406 184.300781 56.566406 219.042969 61.222656 239.894531 C 66.140625 261.820312 124.214844 288.621094 155.402344 254.945312 C 164.445312 245.183594 180.476562 236.632812 193.445312 234.480469 C 219.558594 230.117188 270.316406 249.671875 294 232.390625 C 309.242188 221.253906 319.84375 199.320312 283.945312 174.53125 C 256.355469 155.496094 238.582031 156.867188 224.574219 134.628906 C 215.027344 119.445312 247.066406 96.46875 208.476562 80.246094 C 189.410156 72.207031 170.042969 81.9375 155.378906 98.554688 Z M 155.378906 98.554688 " fill-opacity="1" fill-rule="evenodd"/></g></g></g><g clip-path="url(#id4)"><g clip-path="url(#id5)"><g clip-path="url(#id6)"><path fill="#004aad" d="M 148.253906 94.757812 C 125.9375 120.105469 120.128906 171.042969 102.59375 173.816406 C 60.316406 180.503906 49.445312 215.246094 54.097656 236.097656 C 59.015625 258.023438 117.089844 284.824219 148.277344 251.152344 C 157.320312 241.390625 173.351562 232.839844 186.320312 230.683594 C 212.433594 226.324219 263.191406 245.875 286.875 228.597656 C 302.117188 217.457031 312.71875 195.523438 276.820312 170.734375 C 249.230469 151.703125 231.457031 153.070312 217.449219 130.832031 C 207.902344 115.648438 239.941406 92.675781 201.351562 76.449219 C 182.285156 68.414062 162.917969 78.140625 148.253906 94.757812 Z M 148.253906 94.757812 " fill-opacity="1" fill-rule="evenodd"/></g></g></g><g fill="#ffffff" fill-opacity="1"><g transform="translate(78.185533, 230.827736)"><g><path d="M -2.296875 -41.890625 L 12.078125 -44.234375 C 17.671875 -45.148438 21.957031 -45 24.9375 -43.78125 C 27.914062 -42.5625 29.691406 -40.203125 30.265625 -36.703125 C 30.640625 -34.390625 30.367188 -32.316406 29.453125 -30.484375 C 28.546875 -28.660156 27.160156 -27.359375 25.296875 -26.578125 L 25.34375 -26.296875 C 28.007812 -26.035156 30.039062 -25.210938 31.4375 -23.828125 C 32.84375 -22.441406 33.753906 -20.488281 34.171875 -17.96875 C 34.773438 -14.238281 33.847656 -11.066406 31.390625 -8.453125 C 28.941406 -5.835938 25.300781 -4.132812 20.46875 -3.34375 L 4.4375 -0.734375 Z M 11.421875 -27.90625 L 14.765625 -28.453125 C 16.359375 -28.710938 17.539062 -29.242188 18.3125 -30.046875 C 19.082031 -30.859375 19.359375 -31.910156 19.140625 -33.203125 C 18.765625 -35.503906 16.828125 -36.367188 13.328125 -35.796875 L 10.21875 -35.28125 Z M 12.765625 -19.765625 L 14.171875 -11.140625 L 18.0625 -11.78125 C 21.539062 -12.351562 23.039062 -14.101562 22.5625 -17.03125 C 22.34375 -18.394531 21.707031 -19.363281 20.65625 -19.9375 C 19.601562 -20.507812 18.203125 -20.65625 16.453125 -20.375 Z M 12.765625 -19.765625 "/></g></g></g><g fill="#ffffff" fill-opacity="1"><g transform="translate(117.032524, 224.468734)"><g><path d="M 31.640625 -21.625 C 32.492188 -16.40625 31.753906 -12.101562 29.421875 -8.71875 C 27.097656 -5.34375 23.410156 -3.238281 18.359375 -2.40625 C 13.523438 -1.613281 9.429688 -2.476562 6.078125 -5 C 2.722656 -7.519531 0.628906 -11.320312 -0.203125 -16.40625 C -1.054688 -21.613281 -0.316406 -25.882812 2.015625 -29.21875 C 4.359375 -32.5625 8.0625 -34.644531 13.125 -35.46875 C 16.257812 -35.976562 19.132812 -35.765625 21.75 -34.828125 C 24.375 -33.898438 26.539062 -32.296875 28.25 -30.015625 C 29.96875 -27.742188 31.097656 -24.945312 31.640625 -21.625 Z M 10.96875 -18.234375 C 11.414062 -15.492188 12.125 -13.46875 13.09375 -12.15625 C 14.0625 -10.84375 15.40625 -10.332031 17.125 -10.625 C 18.832031 -10.894531 19.921875 -11.800781 20.390625 -13.34375 C 20.859375 -14.894531 20.867188 -17.039062 20.421875 -19.78125 C 19.972656 -22.507812 19.28125 -24.507812 18.34375 -25.78125 C 17.40625 -27.050781 16.078125 -27.546875 14.359375 -27.265625 C 12.671875 -26.984375 11.570312 -26.09375 11.0625 -24.59375 C 10.550781 -23.09375 10.519531 -20.972656 10.96875 -18.234375 Z M 10.96875 -18.234375 "/></g></g></g><g fill="#ffffff" fill-opacity="1"><g transform="translate(153.768266, 218.455329)"><g><path d="M 28.671875 -37.4375 L 29.546875 -32.109375 L 25.4375 -29.796875 C 26.226562 -28.804688 26.738281 -27.59375 26.96875 -26.15625 C 27.53125 -22.71875 26.757812 -19.851562 24.65625 -17.5625 C 22.550781 -15.269531 19.109375 -13.734375 14.328125 -12.953125 C 13.148438 -12.753906 12.195312 -12.675781 11.46875 -12.71875 C 11.289062 -12.1875 11.238281 -11.703125 11.3125 -11.265625 C 11.394531 -10.722656 11.898438 -10.378906 12.828125 -10.234375 C 13.753906 -10.097656 14.929688 -10.144531 16.359375 -10.375 L 21.65625 -11.25 C 28.800781 -12.414062 32.867188 -9.984375 33.859375 -3.953125 C 34.492188 -0.0664062 33.332031 3.222656 30.375 5.921875 C 27.414062 8.617188 22.941406 10.457031 16.953125 11.4375 C 12.429688 12.175781 8.828125 11.988281 6.140625 10.875 C 3.453125 9.769531 1.875 7.804688 1.40625 4.984375 C 0.78125 1.171875 2.738281 -1.675781 7.28125 -3.5625 C 6.238281 -3.820312 5.28125 -4.347656 4.40625 -5.140625 C 3.53125 -5.941406 3.019531 -6.789062 2.875 -7.6875 C 2.71875 -8.6875 2.847656 -9.609375 3.265625 -10.453125 C 3.679688 -11.304688 4.664062 -12.394531 6.21875 -13.71875 C 4.445312 -14.195312 2.960938 -15.140625 1.765625 -16.546875 C 0.566406 -17.953125 -0.210938 -19.769531 -0.578125 -22 C -1.148438 -25.46875 -0.414062 -28.347656 1.625 -30.640625 C 3.675781 -32.941406 6.898438 -34.453125 11.296875 -35.171875 C 11.878906 -35.265625 12.890625 -35.363281 14.328125 -35.46875 C 15.773438 -35.570312 16.851562 -35.625 17.5625 -35.625 Z M 10.515625 2.359375 C 10.660156 3.253906 11.265625 3.898438 12.328125 4.296875 C 13.390625 4.691406 14.738281 4.753906 16.375 4.484375 C 19.039062 4.054688 21.117188 3.375 22.609375 2.4375 C 24.109375 1.507812 24.773438 0.519531 24.609375 -0.53125 C 24.460938 -1.375 23.867188 -1.890625 22.828125 -2.078125 C 21.796875 -2.265625 20.367188 -2.210938 18.546875 -1.921875 L 14.25 -1.203125 C 13.070312 -1.015625 12.117188 -0.578125 11.390625 0.109375 C 10.671875 0.804688 10.378906 1.554688 10.515625 2.359375 Z M 9.8125 -23.640625 C 10.351562 -20.378906 11.753906 -18.929688 14.015625 -19.296875 C 15.066406 -19.472656 15.8125 -20.007812 16.25 -20.90625 C 16.6875 -21.8125 16.773438 -23.070312 16.515625 -24.6875 C 15.972656 -27.988281 14.601562 -29.457031 12.40625 -29.09375 C 10.144531 -28.726562 9.28125 -26.910156 9.8125 -23.640625 Z M 9.8125 -23.640625 "/></g></g></g><g fill="#ffffff" fill-opacity="1"><g transform="translate(188.702408, 212.736835)"><g><path d="M 14.796875 -2.421875 L 3.796875 -0.625 L -3.375 -44.4375 L 7.625 -46.234375 Z M 14.796875 -2.421875 "/></g></g></g><g fill="#ffffff" fill-opacity="1"><g transform="translate(207.337704, 209.686357)"><g><path d="M 19.296875 -2.5625 C 13.972656 -1.695312 9.613281 -2.4375 6.21875 -4.78125 C 2.820312 -7.125 0.695312 -10.910156 -0.15625 -16.140625 C -1.039062 -21.523438 -0.359375 -25.878906 1.890625 -29.203125 C 4.140625 -32.523438 7.796875 -34.597656 12.859375 -35.421875 C 17.648438 -36.210938 21.5625 -35.570312 24.59375 -33.5 C 27.625 -31.425781 29.523438 -28.03125 30.296875 -23.3125 L 31.09375 -18.421875 L 11.40625 -15.203125 C 11.769531 -13.421875 12.648438 -12.125 14.046875 -11.3125 C 15.453125 -10.507812 17.21875 -10.28125 19.34375 -10.625 C 21.269531 -10.9375 23.015625 -11.40625 24.578125 -12.03125 C 26.140625 -12.664062 27.796875 -13.582031 29.546875 -14.78125 L 30.828125 -6.859375 C 29.253906 -5.703125 27.570312 -4.800781 25.78125 -4.15625 C 24 -3.507812 21.835938 -2.976562 19.296875 -2.5625 Z M 14.453125 -28 C 13.160156 -27.789062 12.144531 -27.207031 11.40625 -26.25 C 10.664062 -25.300781 10.363281 -23.9375 10.5 -22.15625 L 19.953125 -23.703125 C 19.671875 -25.234375 19.035156 -26.390625 18.046875 -27.171875 C 17.054688 -27.953125 15.859375 -28.226562 14.453125 -28 Z M 14.453125 -28 "/></g></g></g><g fill="#ffffff" fill-opacity="1"><g transform="translate(242.975596, 203.852663)"><g><path d="M 17.734375 -36.21875 C 18.691406 -36.382812 19.613281 -36.460938 20.5 -36.453125 L 21.15625 -36.453125 L 21.859375 -25.875 C 20.921875 -25.957031 19.660156 -25.867188 18.078125 -25.609375 C 15.671875 -25.210938 14.007812 -24.378906 13.09375 -23.109375 C 12.175781 -21.835938 11.890625 -20.171875 12.234375 -18.109375 L 14.796875 -2.421875 L 3.796875 -0.625 L -1.421875 -32.515625 L 6.78125 -33.859375 L 9.3125 -29.046875 L 9.859375 -29.125 C 10.503906 -30.96875 11.5625 -32.539062 13.03125 -33.84375 C 14.5 -35.15625 16.066406 -35.945312 17.734375 -36.21875 Z M 17.734375 -36.21875 "/></g></g></g><g fill="#ffffff" fill-opacity="1"><g transform="translate(126.204887, 174.073658)"><g><path d="M 28.390625 -9.578125 L -0.828125 -17.203125 L -1.578125 -21.84375 L 23.421875 -39.921875 L 24.734375 -31.9375 L 9.28125 -21.5625 L 27.09375 -17.515625 Z M 28.390625 -9.578125 "/></g></g></g><g fill="#ffffff" fill-opacity="1"><g transform="translate(157.411786, 168.965289)"><g><path d="M 17.734375 -43.90625 L 9.6875 -1.015625 L 0.359375 0.5 L 8.40625 -42.390625 Z M 17.734375 -43.90625 "/></g></g></g><g fill="#ffffff" fill-opacity="1"><g transform="translate(181.779557, 164.976442)"><g><path d="M -0.140625 -13.046875 L 15.453125 -22.5625 L -2.5 -27.46875 L -3.8125 -35.453125 L 25.65625 -26.3125 L 26.40625 -21.671875 L 1.15625 -5.109375 Z M -0.140625 -13.046875 "/></g></g></g></svg>